<?xml version="1.0" encoding="UTF-8"?>
<svg id="Ebene_1" xmlns="http://www.w3.org/2000/svg" version="1.1" viewBox="0 0 34.71 56.43">
  <!-- Generator: Adobe Illustrator 29.7.1, SVG Export Plug-In . SVG Version: 2.1.1 Build 8)  -->
  <defs>
    <style>
      .st0 {
        fill: #fff;
      }
    </style>
  </defs>
  <path class="st0" d="M0,0h7.16v50.51h23.7v5.91H0V0Z"/>
  <path class="st0" d="M27.34,38.94c0,5.44-3.2,8.37-7.56,9.66h11.48c2.09-2.48,3.45-5.62,3.45-9.58,0-8.01-6.01-12.26-11.14-13.54v-.16c5.69-2.08,9.13-6.65,9.13-11.86,0-4.25-1.68-7.45-4.49-9.53-3.37-2.72-7.85-3.93-14.82-3.93-1.17,0-2.34.03-3.49.08l.02,5.44c1-.09,2.26-.15,3.86-.15,7.05,0,11.86,2.48,11.86,8.81,0,5.21-4.33,9.05-11.7,9.05h-3.94l.02,5.29h3.36c7.61,0,13.94,3.04,13.94,10.42Z"/>
</svg>